<svg width="34" height="34" viewBox="0 0 34 34" fill="none" xmlns="http://www.w3.org/2000/svg">
<path d="M28.7014 6.69637V26.3742C28.7014 26.8241 28.5227 27.2556 28.2045 27.5737C27.8864 27.8919 27.4549 28.0706 27.005 28.0706H7.32717C6.87726 28.0706 6.44578 27.8919 6.12765 27.5737C5.80952 27.2556 5.6308 26.8241 5.6308 26.3742V6.69637C5.6308 6.24646 5.80952 5.81499 6.12765 5.49685C6.44578 5.17872 6.87726 5 7.32717 5H27.005C27.4549 5 27.8864 5.17872 28.2045 5.49685C28.5227 5.81499 28.7014 6.24646 28.7014 6.69637ZM12.4163 13.8211H9.02353V24.6779H12.4163V13.8211ZM12.7216 10.0891C12.7234 9.83247 12.6746 9.578 12.5781 9.34022C12.4815 9.10244 12.3391 8.886 12.1588 8.70327C11.9786 8.52055 11.7642 8.37511 11.5278 8.27525C11.2914 8.1754 11.0376 8.12309 10.781 8.12132H10.7199C10.198 8.12132 9.6975 8.32864 9.32847 8.69767C8.95943 9.0667 8.75211 9.56721 8.75211 10.0891C8.75211 10.611 8.95943 11.1115 9.32847 11.4805C9.6975 11.8496 10.198 12.0569 10.7199 12.0569C10.9766 12.0632 11.2319 12.0189 11.4714 11.9265C11.711 11.834 11.9299 11.6953 12.1158 11.5183C12.3017 11.3412 12.4509 11.1292 12.5548 10.8945C12.6588 10.6598 12.7155 10.4068 12.7216 10.1502V10.0891ZM25.3087 18.0824C25.3087 14.8186 23.2323 13.5497 21.1695 13.5497C20.4941 13.5159 19.8217 13.6597 19.2192 13.9669C18.6168 14.2741 18.1054 14.7338 17.7361 15.3003H17.6411V13.8211H14.4519V24.6779H17.8446V18.9034C17.7956 18.312 17.9819 17.7252 18.363 17.2703C18.7442 16.8155 19.2894 16.5294 19.8803 16.4742H20.0092C21.0881 16.4742 21.8888 17.1528 21.8888 18.8627V24.6779H25.2815L25.3087 18.0824Z" fill="white"/>
</svg>
